# xmcd
#
# Track frame offsets: 
#        150
#        11910
#        23955
#        41472
#        51725
#        62455
#        78315
#        90037
#        101807
#        117782
#        132020
#        142732
#
# Disc length: 2075 seconds
#
# Revision: 0
# Processed by: cddbd v1.4PL0 Copyright (c) Steve Scherf et al.
# Submitted via: ExactAudioCopy v0.90b4
#
DISCID=9108190c
DTITLE=Trucks aus dem Zillertal - Der cowboy vom Zillertal
DYEAR=1900
DGENRE=country
TTITLE0=Der cowboy aus dem Zillertal
TTITLE1=Die strasse unter mir
TTITLE2=mississippi laddy
TTITLE3=die naechte sind so einsam
TTITLE4=wenn das nicht edi ist
TTITLE5=tut mir leid
TTITLE6=das weite tal
TTITLE7=amerika
TTITLE8=ein maedchen wie linda
TTITLE9=heisses herz und kalte schnauze
TTITLE10=die sprache deiner heimat
TTITLE11=helden der vergangenheit
EXTD=
EXTT0=
EXTT1=
EXTT2=
EXTT3=
EXTT4=
EXTT5=
EXTT6=
EXTT7=
EXTT8=
EXTT9=
EXTT10=
EXTT11=
PLAYORDER=
